<svg xmlns="http://www.w3.org/2000/svg" xmlns:xlink="http://www.w3.org/1999/xlink" width="406" height="421" viewBox="0 0 406 421">
  <defs>
    <linearGradient id="linear-gradient" x1="1.105" y1="0.5" x2="0.105" y2="0.5" gradientUnits="objectBoundingBox">
      <stop offset="0" stop-color="#093554"/>
      <stop offset="0.493" stop-color="#058ed8"/>
      <stop offset="1" stop-color="#f4ebc9"/>
    </linearGradient>
    <linearGradient id="linear-gradient-2" x1="1.807" y1="0.5" x2="0.807" y2="0.5" gradientUnits="objectBoundingBox">
      <stop offset="0" stop-color="#c0bff6"/>
      <stop offset="0.294" stop-color="#c5c4f7"/>
      <stop offset="0.64" stop-color="#d3d2f9"/>
      <stop offset="1" stop-color="#e9e9fd"/>
    </linearGradient>
    <linearGradient id="linear-gradient-3" x1="10.519" y1="0.5" x2="9.519" y2="0.5" gradientUnits="objectBoundingBox">
      <stop offset="0" stop-color="#5761d7"/>
      <stop offset="0.178" stop-color="#5c66d9"/>
      <stop offset="0.388" stop-color="#6a73df"/>
      <stop offset="0.613" stop-color="#8289e8"/>
      <stop offset="0.849" stop-color="#a3a7f5"/>
      <stop offset="1" stop-color="#bcbeff"/>
    </linearGradient>
    <linearGradient id="linear-gradient-4" x1="1.09" y1="0.5" x2="0.09" y2="0.5" xlink:href="#linear-gradient"/>
    <linearGradient id="linear-gradient-5" x1="0.753" y1="0.5" x2="-0.246" y2="0.5" xlink:href="#linear-gradient"/>
    <linearGradient id="linear-gradient-6" x1="0.308" y1="0.5" x2="-0.692" y2="0.5" gradientUnits="objectBoundingBox">
      <stop offset="0" stop-color="#6aa1c7"/>
      <stop offset="0.493" stop-color="#058ed8"/>
      <stop offset="1" stop-color="#f4ebc9"/>
    </linearGradient>
    <clipPath id="clip-path">
      <path id="Path_903" data-name="Path 903" d="M363.68,8.94,144.66,135.4l27.174,160.109L390.69,169.139Z" transform="translate(-144.66 -8.94)" fill="#42448e" opacity="0.11"/>
    </clipPath>
    <linearGradient id="linear-gradient-7" x1="1.518" y1="0.5" x2="0.518" y2="0.5" xlink:href="#linear-gradient"/>
    <linearGradient id="linear-gradient-8" x1="5.129" y1="0.5" x2="4.129" y2="0.5" xlink:href="#linear-gradient-2"/>
    <linearGradient id="linear-gradient-9" x1="1.809" y1="0.5" x2="0.809" y2="0.5" gradientUnits="objectBoundingBox">
      <stop offset="0" stop-color="#42e8e0"/>
      <stop offset="0.151" stop-color="#43e3e0"/>
      <stop offset="0.329" stop-color="#45d5df"/>
      <stop offset="0.52" stop-color="#49bddd"/>
      <stop offset="1" stop-color="#4e73a3"/>
    </linearGradient>
    <linearGradient id="linear-gradient-10" x1="1.641" y1="0.5" x2="0.641" y2="0.5" xlink:href="#linear-gradient-9"/>
    <linearGradient id="linear-gradient-11" x1="1.447" y1="0.5" x2="0.447" y2="0.5" xlink:href="#linear-gradient-9"/>
    <linearGradient id="linear-gradient-12" x1="1.299" y1="0.5" x2="0.299" y2="0.5" xlink:href="#linear-gradient-9"/>
    <linearGradient id="linear-gradient-13" x1="1.189" y1="0.5" x2="0.189" y2="0.5" xlink:href="#linear-gradient-9"/>
    <linearGradient id="linear-gradient-14" x1="1.108" y1="0.5" x2="0.108" y2="0.5" xlink:href="#linear-gradient-9"/>
    <linearGradient id="linear-gradient-15" x1="1.053" y1="0.5" x2="0.053" y2="0.5" xlink:href="#linear-gradient-9"/>
    <linearGradient id="linear-gradient-16" x1="1.019" y1="0.5" x2="0.019" y2="0.5" xlink:href="#linear-gradient-9"/>
    <linearGradient id="linear-gradient-17" x1="1.004" y1="0.5" x2="0.004" y2="0.5" xlink:href="#linear-gradient-9"/>
    <linearGradient id="linear-gradient-18" x1="1.845" y1="0.5" x2="0.845" y2="0.5" xlink:href="#linear-gradient-9"/>
    <clipPath id="clip-illu_page">
      <rect width="406" height="421"/>
    </clipPath>
  </defs>
  <g id="illu_page" clip-path="url(#clip-illu_page)">
    <g id="Group_208" data-name="Group 208" transform="translate(0 -0.471)">
      <g id="Group_202" data-name="Group 202" transform="translate(0 0)">
        <g id="Group_201" data-name="Group 201">
          <g id="Group_200" data-name="Group 200">
            <g id="Group_190" data-name="Group 190" transform="translate(48.605 223.614)">
              <path id="Path_871" data-name="Path 871" d="M184.078,346.287a16.866,16.866,0,0,1-8.409-2.245l-118.122-68.2a2.187,2.187,0,0,1-1.107-1.93,2.218,2.218,0,0,1,1.107-1.93L269.625,149.547a.783.783,0,0,1,.808,0L396.56,222.36a2.187,2.187,0,0,1,1.107,1.93,2.218,2.218,0,0,1-1.107,1.93L192.488,344.043A16.866,16.866,0,0,1,184.078,346.287Zm85.935-195.124L58.34,273.37a.619.619,0,0,0,0,1.077l118.122,68.2a15.238,15.238,0,0,0,15.2,0L395.737,224.829a.619.619,0,0,0,0-1.077Z" transform="translate(-56.44 -149.435)" fill="url(#linear-gradient)"/>
            </g>
            <g id="Group_195" data-name="Group 195">
              <g id="Group_192" data-name="Group 192">
                <path id="Path_872" data-name="Path 872" d="M403.981,171.888,375.55,3.22l2.289-.958L374.4.287V.3a2.464,2.464,0,0,0-2.649.18L144.544,131.666a6.408,6.408,0,0,0-2.948,5.776l28.655,170.015a2.154,2.154,0,0,0,1.2,1.736h0l3.367,1.945L175.4,308l-.195.06L401.033,177.664A6.408,6.408,0,0,0,403.981,171.888Z" transform="translate(-141.548 0.005)" fill="url(#linear-gradient-2)"/>
                <path id="Path_873" data-name="Path 873" d="M291.088,91.616l-3.741-1.646a5.088,5.088,0,0,0-.479,2.813L315.523,262.8a2.153,2.153,0,0,0,1.2,1.736h0l3.367,1.945.584-3.142-.195.06,11.432-6.6Z" transform="translate(-286.805 44.664)" fill="url(#linear-gradient-3)"/>
                <path id="Path_874" data-name="Path 874" d="M398.635,179.023,171.43,310.207c-1.751,1.017-3.262.434-3.561-1.392L139.213,138.8a6.408,6.408,0,0,1,2.948-5.776L369.352,1.855c1.751-1.018,3.262-.434,3.561,1.392l28.655,170.015A6.371,6.371,0,0,1,398.635,179.023Z" transform="translate(-135.574 0.682)" fill="#24126a"/>
                <g id="Group_191" data-name="Group 191" transform="translate(11.794 13.385)" opacity="0.51">
                  <path id="Path_875" data-name="Path 875" d="M363.68,8.94,144.66,135.4l27.174,160.109L390.69,169.139Z" transform="translate(-144.66 -8.94)" fill="#0a3c5e"/>
                </g>
              </g>
              <g id="Group_194" data-name="Group 194" transform="translate(35.091 179.129)">
                <path id="Path_876" data-name="Path 876" d="M416.41,195.809l-12.4,6.479-124.332-71.78c-2.08-1.2-5.716-1.047-8.11.329L57.122,254.645c-2.05-1.152-11.4-5.641-11.4-5.641l4.534,11.821.015-.015a2.755,2.755,0,0,0,1.272,1.407l130.945,75.61c2.08,1.2,5.716,1.047,8.11-.329L410.051,210.787a3.917,3.917,0,0,0,1.84-1.96l.015.015Z" transform="translate(-45.628 -114.745)" fill="url(#linear-gradient-4)"/>
                <path id="Path_877" data-name="Path 877" d="M414.5,202.819,189.6,332.672c-2.469,1.422-6.18,1.571-8.32.344L47.073,255.536c-2.125-1.227-1.87-3.382.6-4.8l224.9-129.853c2.469-1.422,6.18-1.571,8.32-.344L415.1,198.016C417.24,199.243,416.97,201.4,414.5,202.819Z" transform="translate(-45.635 -119.705)" fill="url(#linear-gradient-5)"/>
                <path id="Path_878" data-name="Path 878" d="M236.4,244.162v-2.469c0-.239.15-.344.314-.239l8.694,5.028a.756.756,0,0,1,.314.613v2.469c0,.239-.15.344-.314.239l-8.694-5.028A.756.756,0,0,1,236.4,244.162Z" transform="translate(-160.264 -59.296)" fill="#2842a2"/>
                <path id="Path_879" data-name="Path 879" d="M227.71,249.182v-2.469c0-.239.15-.344.314-.239l8.694,5.028a.756.756,0,0,1,.314.613v2.469c0,.239-.15.344-.314.239l-8.694-5.028A.8.8,0,0,1,227.71,249.182Z" transform="translate(-138.571 -56.805)" fill="#2842a2"/>
                <path id="Path_880" data-name="Path 880" d="M97.34,241.59l186.894-107.9a4.029,4.029,0,0,1,4.025,0l66.543,38.5a1.433,1.433,0,0,1,0,2.484L168,282.53a4.029,4.029,0,0,1-4.025,0L97.325,244.074A1.439,1.439,0,0,1,97.34,241.59Z" transform="translate(-60.902 -113.032)" fill="#5f8ca3"/>
                <path id="Path_881" data-name="Path 881" d="M97.328,244.074l.673.389,186.22-107.513a4.029,4.029,0,0,1,4.025,0l65.884,38.112.673-.389a1.433,1.433,0,0,0,0-2.484l-66.558-38.5a4.029,4.029,0,0,0-4.025,0L97.328,241.59A1.433,1.433,0,0,0,97.328,244.074Z" transform="translate(-60.89 -113.032)" fill="#9198db"/>
                <g id="Group_193" data-name="Group 193" transform="translate(45.79 26.238)">
                  <path id="Path_882" data-name="Path 882" d="M307.776,141.415,145.422,235.146l-7.212-4.175L300.549,137.24Z" transform="translate(-121.182 -137.24)" fill="#24126a"/>
                  <path id="Path_883" data-name="Path 883" d="M285.871,148.245,133.6,236.155l-7.212-4.175,152.268-87.91Z" transform="translate(-81.589 -133.85)" fill="#24126a"/>
                  <path id="Path_884" data-name="Path 884" d="M305.18,152.68,125.9,256.2l-7.212-4.175,179.277-103.5Z" transform="translate(-89.377 -131.641)" fill="#88c4d5"/>
                  <path id="Path_885" data-name="Path 885" d="M297.485,157.135l-179.292,103.5-7.212-4.16L290.257,152.96Z" transform="translate(-70.145 -129.437)" fill="#88c4d5"/>
                  <path id="Path_886" data-name="Path 886" d="M289.785,161.585l-179.277,103.5-7.227-4.16L282.572,157.41Z" transform="translate(-50.923 -127.229)" fill="#88c4d5"/>
                  <path id="Path_887" data-name="Path 887" d="M267.7,207.835l-7.227,4.16-7.212-4.16,7.212-4.175Z" transform="translate(-253.26 -104.273)" fill="#88c4d5"/>
                  <path id="Path_888" data-name="Path 888" d="M258.441,211.66l-14.978,8.649-7.212-4.16,14.978-8.649Z" transform="translate(-218.548 -102.367)" fill="#88c4d5"/>
                </g>
                <path id="Path_889" data-name="Path 889" d="M147.86,240.968l50.4-29.089c1.975-1.137,1.975-2.978,0-4.115l-34.461-19.9a7.893,7.893,0,0,0-7.138,0l-50.4,29.089c-1.975,1.137-1.975,2.978,0,4.115l34.461,19.9A7.893,7.893,0,0,0,147.86,240.968Z" transform="translate(82.669 -86.299)" fill="url(#linear-gradient-6)"/>
                <path id="Path_890" data-name="Path 890" d="M106.28,218.648l50.4-29.089a7.893,7.893,0,0,1,7.138,0l34.446,19.887a3.121,3.121,0,0,1,1.242,1.212c.524-.988.12-2.11-1.242-2.9l-34.461-19.9a7.893,7.893,0,0,0-7.138,0l-50.4,29.089c-1.362.793-1.766,1.9-1.242,2.9A3.248,3.248,0,0,1,106.28,218.648Z" transform="translate(82.65 -86.304)" fill="#9198db"/>
              </g>
            </g>
            <g id="Group_199" data-name="Group 199" transform="translate(11.794 13.385)" opacity="0.11">
              <g id="Group_198" data-name="Group 198" clip-path="url(#clip-path)">
                <path id="Path_891" data-name="Path 891" d="M509.2,147.884,284.3,277.723c-2.469,1.422-6.18,1.571-8.32.344L141.773,200.586c-2.125-1.227-1.87-3.382.6-4.8l224.9-129.853c2.469-1.422,6.18-1.571,8.32-.344l134.207,77.5C511.94,144.308,511.67,146.463,509.2,147.884Z" transform="translate(-258.743 18.764)" fill="url(#linear-gradient-7)"/>
                <path id="Path_892" data-name="Path 892" d="M300.85,153.758l50.4-29.089c1.975-1.137,1.975-2.978,0-4.115l-34.461-19.9a7.893,7.893,0,0,0-7.138,0l-50.4,29.089c-1.975,1.137-1.975,2.978,0,4.115l34.461,19.9A7.893,7.893,0,0,0,300.85,153.758Z" transform="translate(-275.951 36.158)" fill="url(#linear-gradient-8)"/>
                <path id="Path_893" data-name="Path 893" d="M259.245,131.433l50.4-29.089a7.893,7.893,0,0,1,7.138,0l34.461,19.9a3.121,3.121,0,0,1,1.242,1.212c.524-.988.12-2.11-1.242-2.9l-34.461-19.9a7.893,7.893,0,0,0-7.138,0l-50.4,29.089c-1.362.793-1.766,1.9-1.242,2.9A3.22,3.22,0,0,1,259.245,131.433Z" transform="translate(-275.945 36.158)" fill="#9198db"/>
                <g id="Group_197" data-name="Group 197" transform="translate(-39.565 126.95)">
                  <path id="Path_894" data-name="Path 894" d="M163.208,202.22,350.1,94.319a4.029,4.029,0,0,1,4.025,0l66.558,38.5a1.433,1.433,0,0,1,0,2.484L233.881,243.16a4.029,4.029,0,0,1-4.025,0L163.208,204.7A1.433,1.433,0,0,1,163.208,202.22Z" transform="translate(-162.488 -93.78)" fill="#adb1f2"/>
                  <path id="Path_895" data-name="Path 895" d="M163.22,204.7l.673.389L350.1,97.581a4.029,4.029,0,0,1,4.025,0l65.884,38.112.673-.389a1.433,1.433,0,0,0,0-2.484l-66.558-38.5a4.029,4.029,0,0,0-4.025,0L163.205,202.22A1.439,1.439,0,0,0,163.22,204.7Z" transform="translate(-162.5 -93.78)" fill="#9198db"/>
                  <g id="Group_196" data-name="Group 196" transform="translate(10.596 7.901)">
                    <path id="Path_896" data-name="Path 896" d="M333.128,118.12l-162.818,94,6.449,3.726,162.818-94Z" transform="translate(-102.959 -89.6)" fill="#94cbda"/>
                    <path id="Path_897" data-name="Path 897" d="M336.522,111.5,181.77,200.847l6.449,3.726,154.752-89.347Z" transform="translate(-123.502 -92.885)" fill="#94cbda"/>
                    <path id="Path_898" data-name="Path 898" d="M307.36,175.67,292.92,184l6.449,3.726,14.44-8.335Z" transform="translate(-260.659 -61.035)" fill="#94cbda"/>
                    <path id="Path_899" data-name="Path 899" d="M294.45,183.98l-10.07,5.806,6.449,3.726,10.07-5.806Z" transform="translate(-234.971 -56.91)" fill="#94cbda"/>
                    <path id="Path_900" data-name="Path 900" d="M369.719,107.35,188.96,211.72l6.449,3.726,180.759-104.37Z" transform="translate(-167.457 -94.945)" fill="#94cbda"/>
                    <path id="Path_901" data-name="Path 901" d="M376.9,103.2,196.14,207.57l6.449,3.726,180.759-104.37Z" transform="translate(-185.381 -97.005)" fill="#94cbda"/>
                    <path id="Path_902" data-name="Path 902" d="M384.094,99.06,203.32,203.415l6.449,3.726,180.774-104.37Z" transform="translate(-203.32 -99.06)" fill="#94cbda"/>
                  </g>
                </g>
              </g>
            </g>
          </g>
        </g>
      </g>
      <path id="Path_904" data-name="Path 904" d="M260.625,102.39l-6.255,3.457,29.269,131.5L302.1,226.677Z" transform="translate(-208.444 50.829)" fill="#24126a" opacity="0.5"/>
      <path id="Path_905" data-name="Path 905" d="M182.2,196.119l15.592,8.395V207.9l67.53,39.369,3.187-1.84L294.935,260.6l13.721-8.454L200.665,185.45Z" transform="translate(-107.005 92.055)" fill="#44689a" opacity="0.5"/>
      <g id="Group_204" data-name="Group 204" transform="translate(48.501 55.402)">
        <path id="Path_906" data-name="Path 906" d="M73.282,266.378l155.65-89.856a1.828,1.828,0,0,0-.554-1.122L72.16,265.6Z" transform="translate(88.875 31.665)" fill="#fff" opacity="0.3"/>
        <path id="Path_907" data-name="Path 907" d="M334.807,37.05,179.95,126.457l1.122.793,154.677-89.3A1.523,1.523,0,0,0,334.807,37.05Z" transform="translate(-179.233 -37.005)" fill="#fff" opacity="0.3"/>
        <g id="Group_203" data-name="Group 203">
          <path id="Path_908" data-name="Path 908" d="M388.9,243.875l-104-60.049a.475.475,0,0,0-.135-.045v-.03l-10.7-11.372L228.478,38.127c-.194-.584-.688-1.077-1.107-1.077l-2.17-.03a.452.452,0,0,0-.239.075h0L72.14,125.379l48.542,136.362,9.053,11.058L151.6,286.012l67.351,38.321L236.663,336.9,389.5,248.619h0a.584.584,0,0,0,.239-.539v-2.8A1.829,1.829,0,0,0,388.9,243.875Z" transform="translate(-71.902 -37.02)" fill="#789fd5"/>
          <path id="Path_909" data-name="Path 909" d="M338.443,302.875l-104-60.048a.477.477,0,0,0-.135-.045v-.03l-10.7-11.372L178.019,97.127c-.195-.584-.688-1.077-1.107-1.077l-2.17-.03c-.4,0-.584.464-.374,1.062l45.594,134.252c.195.584.688,1.077,1.107,1.077l.524.569a2.091,2.091,0,0,0,.569,1.392l9.846,10.729c.374.4.793.539,1.062.374l.569.614a1.867,1.867,0,0,0,.823,1.436l104,60.049c.449.269.823.045.823-.479v-2.8A1.925,1.925,0,0,0,338.443,302.875Z" transform="translate(-174.28 -7.735)" fill="#789fd5"/>
          <path id="Path_910" data-name="Path 910" d="M153.124,227.227l152.717-88.344-10.7-11.4L142.29,215.78Z" transform="translate(-92.972 7.88)" fill="#44689a"/>
        </g>
        <path id="Path_911" data-name="Path 911" d="M155.986,256.535l-7.736-122.6L301.1,45.64l7.736,122.611Z" transform="translate(-104.888 -32.741)" opacity="0.48" fill="url(#linear-gradient-9)"/>
        <path id="Path_912" data-name="Path 912" d="M138.55,252.506l13.168-109.877L304.57,54.33,291.4,164.207Z" transform="translate(-86.105 -28.428)" opacity="0.48" fill="url(#linear-gradient-10)"/>
        <path id="Path_913" data-name="Path 913" d="M124.01,247.208,157.543,154.6,310.38,66.3l-33.533,92.609Z" transform="translate(-70.158 -22.487)" opacity="0.48" fill="url(#linear-gradient-11)"/>
        <path id="Path_914" data-name="Path 914" d="M110.39,240.85,162.9,169.37l152.852-88.3-52.507,71.481Z" transform="translate(-55.146 -15.156)" opacity="0.48" fill="url(#linear-gradient-12)"/>
        <path id="Path_915" data-name="Path 915" d="M98.27,233.694l69.3-47.374,152.852-88.3-69.3,47.374Z" transform="translate(-41.68 -6.743)" opacity="0.48" fill="url(#linear-gradient-13)"/>
        <path id="Path_916" data-name="Path 916" d="M241.012,137.758l83.182-21.308-152.837,88.3-83.2,21.308Z" transform="translate(-30.328 2.405)" opacity="0.48" fill="url(#linear-gradient-14)"/>
        <path id="Path_917" data-name="Path 917" d="M233.312,131.81l93.641,5.641L174.1,225.751,80.46,220.11Z" transform="translate(-21.565 10.029)" opacity="0.48" fill="url(#linear-gradient-15)"/>
        <path id="Path_918" data-name="Path 918" d="M228.352,133.01l100.2,32.366L175.7,253.661,75.5,221.295Z" transform="translate(-15.738 10.624)" opacity="0.48" fill="url(#linear-gradient-16)"/>
        <path id="Path_919" data-name="Path 919" d="M226.342,134.22l102.59,57.744-152.852,88.3L73.49,222.52Z" transform="translate(-13.114 11.225)" opacity="0.48" fill="url(#linear-gradient-17)"/>
        <path id="Path_920" data-name="Path 920" d="M330.248,170.837,177.4,259.137,149.07,128.91l152.852-88.3Z" transform="translate(-127.524 -35.238)" opacity="0.48" fill="url(#linear-gradient-18)"/>
      </g>
    </g>
  </g>
</svg>
