<svg xmlns="http://www.w3.org/2000/svg" viewBox="0 0 679 158.44">
    <title>TrueLayer-LOGO-horizontal</title>
    <g id="Original_Horizontal" data-name="Original Horizontal">
        <path d="M189.35,57a2.73,2.73,0,0,1,0-5.46h36.24a2.73,2.73,0,0,1,0,5.46H210.42v49.72a2.9,2.9,0,0,1-5.8,0V57Z"
              style="fill:#ffffff"/>
        <path d="M251.69,106.74a2.9,2.9,0,0,1-5.8,0V54.47a2.88,2.88,0,0,1,2.9-2.9h17A15.92,15.92,0,0,1,282,67.86c0,8.78-6.05,15.86-15.26,16.29L282.38,105a2.83,2.83,0,0,1,.6,1.79,2.91,2.91,0,0,1-5.37,1.53L260.3,84.15h-8.61Zm0-27.89h14.24c6,0,10.23-4.86,10.23-11,0-6.31-4.35-11-10.49-11h-14Z"
              style="fill:#ffffff"/>
        <path d="M301.06,91.48V53.79a2.9,2.9,0,0,1,5.8,0V91.48c0,6.74,2.47,13.22,14.24,13.22s14.16-6.48,14.16-13.22V53.79a2.9,2.9,0,0,1,5.8,0V91.48c0,9.38-3.84,18.68-20,18.68S301.06,100.86,301.06,91.48Z"
              style="fill:#ffffff"/>
        <path d="M444.82,103.5a2.73,2.73,0,0,1,0,5.46H418.56a2.88,2.88,0,0,1-2.9-2.9V53.79a2.9,2.9,0,0,1,5.8,0V103.5Z"
              style="fill:#ffffff"/>
        <path d="M531,106.75V82.27L513.89,55.32a2.94,2.94,0,0,1-.43-1.53,2.91,2.91,0,0,1,5.37-1.53l15.09,24.22L549,52.25a2.91,2.91,0,0,1,5.37,1.53,3,3,0,0,1-.43,1.53L536.83,82.27v24.47a2.9,2.9,0,0,1-5.8,0Z"
              style="fill:#ffffff"/>
        <path d="M630,106.75a2.9,2.9,0,0,1-5.8,0V54.47a2.88,2.88,0,0,1,2.9-2.9h17a15.92,15.92,0,0,1,16.29,16.29c0,8.78-6.05,15.86-15.26,16.29L660.72,105a2.83,2.83,0,0,1,.6,1.79,2.91,2.91,0,0,1-5.37,1.53L638.63,84.15H630Zm0-27.89h14.24c6,0,10.23-4.86,10.23-11,0-6.31-4.35-11-10.49-11H630Z"
              style="fill:#ffffff"/>
        <path d="M80,121.13a1.8,1.8,0,0,1-1-.28L14.42,79.38a1.8,1.8,0,0,1,0-3L79.08,36.83a1.8,1.8,0,0,1,1.88,0L145.6,77a1.8,1.8,0,0,1,0,3L81,120.85A1.8,1.8,0,0,1,80,121.13ZM18.77,77.91,80,117.21,141.27,78.5,80,40.47Z"
              style="fill:#f7ab1b"/>
        <path d="M80,96.76a1.8,1.8,0,0,1-1-.28L14.42,55a1.8,1.8,0,0,1,0-3l64.63-39.4a1.8,1.8,0,0,1,1.88,0l64.63,40a1.8,1.8,0,0,1,0,3L81,96.48A1.8,1.8,0,0,1,80,96.76ZM18.78,53.54,80,92.83l61.24-38.7L80,16.21Z"
              style="fill:#f7ab1b"/>
        <path d="M80,145.39a1.79,1.79,0,0,1-.95-.27L14.44,104.89a1.8,1.8,0,0,1,.05-3.08L35.43,89.74a1.8,1.8,0,0,1,1.79,3.11L18.88,103.42,80,141.48,141.19,104,123.64,93.49a1.8,1.8,0,1,1,1.85-3.08l20.09,12a1.8,1.8,0,0,1,0,3.07L81,145.13A1.8,1.8,0,0,1,80,145.39Z"
              style="fill:#f7ab1b"/>
        <path d="M15.39,105.16a1.8,1.8,0,0,1-1.8-1.8V77.87a1.8,1.8,0,0,1,3.59,0v25.5A1.8,1.8,0,0,1,15.39,105.16Z"
              style="fill:#f7ab1b"/>
        <path d="M144.65,80.28a1.8,1.8,0,0,1-1.8-1.8V55a1.8,1.8,0,0,1,3.59,0v23.5A1.8,1.8,0,0,1,144.65,80.28Z"
              style="fill:#f7ab1b"/>
        <path d="M80,40.16a1.8,1.8,0,0,1-1.8-1.8V14.1a1.8,1.8,0,0,1,3.59,0V38.36A1.8,1.8,0,0,1,80,40.16Z"
              style="fill:#f7ab1b"/>
        <path d="M394.09,77.19H365.52a2.64,2.64,0,1,0,0,5.28h28.57a2.64,2.64,0,1,0,0-5.28Z" style="fill:#ffffff"/>
        <path d="M394.09,51.57H365.52a2.64,2.64,0,1,0,0,5.28h28.57a2.64,2.64,0,1,0,0-5.28Z" style="fill:#ffffff"/>
        <path d="M394.09,103.67H365.52a2.64,2.64,0,1,0,0,5.28h28.57a2.64,2.64,0,1,0,0-5.28Z" style="fill:#ffffff"/>
        <path d="M472.83,92l-6.22,15.6a3,3,0,0,1-2.81,2,2.93,2.93,0,0,1-2.9-2.9,3.43,3.43,0,0,1,.26-1.28L482,52.91a2.81,2.81,0,0,1,2.73-2,3,3,0,0,1,2.81,2l20.81,52.61a4.2,4.2,0,0,1,.26,1.28,3,3,0,0,1-5.8.94L496.63,92Zm11.85-31.38L474.63,86.76h20.21Z"
              style="fill:#ffffff"/>
        <path d="M602.61,103.73H577.2v-21H596a2.64,2.64,0,1,0,0-5.29H577.2V56.92h24.47a2.64,2.64,0,0,0,0-5.29H574.3a2.88,2.88,0,0,0-2.9,2.9v51.59a2.88,2.88,0,0,0,2.9,2.9h28.31a2.64,2.64,0,1,0,0-5.29Z"
              style="fill:#ffffff"/>
        <path d="M472.83,92l-6.22,15.6a3,3,0,0,1-2.81,2,2.93,2.93,0,0,1-2.9-2.9,3.43,3.43,0,0,1,.26-1.28L482,52.91a2.81,2.81,0,0,1,2.73-2,3,3,0,0,1,2.81,2l20.81,52.61a4.2,4.2,0,0,1,.26,1.28,3,3,0,0,1-5.8.94L496.63,92Zm11.85-31.38L474.63,86.76h20.21Z"
              style="fill:#ffffff"/>
    </g>
</svg>